<svg width="85" height="77" viewBox="0 0 85 77" fill="none" xmlns="http://www.w3.org/2000/svg">
<path d="M83.9601 42.1443C82.7001 29.8536 68.7147 19.7896 52.7081 19.655C36.7134 19.5256 24.7627 29.3803 26.0147 41.667C27.2681 53.951 41.2627 64.0243 57.2641 64.1536C73.2587 64.283 85.2161 54.4283 83.9601 42.1443ZM31.0347 39.0683C29.9441 29.159 40.3241 21.2083 54.2307 21.3176C68.1254 21.431 80.2881 29.5456 81.3721 39.443C82.4614 49.3576 72.0801 57.303 58.1761 57.195C44.2801 57.091 32.1254 48.9696 31.0347 39.0683Z" fill="#FBB584"/>
<path d="M30.6058 37.3728C21.4484 46.9448 21.2951 61.6648 30.2711 70.2595C39.2458 78.8475 53.9484 78.0541 63.1071 68.4835C72.2698 58.9141 72.4298 44.1928 63.4458 35.6021C54.4764 27.0141 39.7738 27.8021 30.6058 37.3728ZM59.8098 64.4008C51.9271 72.6395 39.2764 73.3155 31.5604 65.9261C23.8311 58.5381 23.9658 45.8661 31.8511 37.6368C39.7324 29.3995 52.3791 28.7195 60.0951 36.1101C67.8178 43.4981 67.6898 56.1728 59.8098 64.4008Z" fill="#F89B6C"/>
<path d="M16.2281 11.8337C-0.78786 25.291 -5.11186 44.8084 6.55081 55.4044C18.2121 66.007 41.4575 63.6857 58.4641 50.2204C75.4735 36.7604 79.8015 17.251 68.1255 6.65104C56.4668 -3.94896 33.2215 -1.63029 16.2281 11.8337ZM31.4428 6.55637C47.8335 0.415041 64.0401 6.62837 67.6455 20.4324C71.2495 34.2444 60.8788 50.4217 44.4948 56.5564C28.1001 62.7057 11.8921 56.4897 8.29347 42.6817C4.68547 28.875 15.0548 12.7044 31.4428 6.55637Z" fill="#F37321"/>
</svg>
