<svg width="33" height="33" viewBox="0 0 33 33" fill="none" xmlns="http://www.w3.org/2000/svg">
    <g transform="rotate(90, 16.5, 16.5)">
        <path d="M16.5 22.6875C19.9173 22.6875 22.6875 19.9173 22.6875 16.5C22.6875 13.0827 19.9173 10.3125 16.5 10.3125C13.0827 10.3125 10.3125 13.0827 10.3125 16.5C10.3125 19.9173 13.0827 22.6875 16.5 22.6875Z" stroke="#FFFCFA" stroke-width="2" stroke-linecap="round" stroke-linejoin="round" fill="none"/>
        <path d="M26.675 20.625L29.5625 21.3125C29.0125 23.375 28.05 25.3 26.8125 26.8125L24.0625 25.85C23.1 26.675 22.0687 27.2937 20.9 27.7063L20.625 30.6625C18.4937 31.075 16.5 31.075 14.3687 30.6625L14.0938 27.7063C12.925 27.2937 11.825 26.6062 10.8625 25.85L8.1875 26.8125C6.95 25.3 5.9875 23.375 5.4375 21.3125L8.325 20.625C8.11875 19.3875 8.11875 17.6 8.325 16.3625L5.4375 15.675C5.9875 13.6125 6.95 11.6875 8.1875 10.175L10.9375 11.1375C11.9 10.3125 12.9312 9.69375 14.1 9.28125L14.375 6.325C16.5063 5.9125 18.5 5.9125 20.6313 6.325L20.9062 9.28125C22.075 9.69375 23.175 10.3813 24.1375 11.1375L26.8125 10.175C28.05 11.6875 29.0125 13.6125 29.5625 15.675L26.675 16.3625C26.8812 17.6 26.8812 19.3875 26.675 20.625Z" stroke="#FFFCFA" stroke-width="2" stroke-linecap="round" stroke-linejoin="round" fill="none"/>
    </g>
</svg>